<svg width="80" height="57" viewBox="0 0 80 57" fill="none" xmlns="http://www.w3.org/2000/svg">
<path d="M7.52584 14.3303L6.70322 13.8041L6.22456 6.34714L4.2037 6.75149L1.72804 10.6211L1.05021 10.1874L7.20566 0.566101L7.88349 0.999762L4.64578 6.06049C4.926 5.98008 5.21279 5.90388 5.50617 5.83189C5.80675 5.75832 6.10872 5.68255 6.41211 5.60459L12.7271 4.09854L13.5694 4.63746L7.02785 6.19329L7.52584 14.3303ZM13.8818 12.2384L20.0516 8.7846L20.7953 9.26036L13.8137 13.113L11.4349 16.8313L10.7571 16.3976L13.1022 12.732L13.6813 4.70903L14.4315 5.18901L13.8818 12.2384ZM16.0021 19.7532L22.1575 10.1319L22.8354 10.5656L16.6799 20.1869L16.0021 19.7532ZM31.9763 16.4137L22.2671 23.7614L21.5959 23.332L24.1976 11.4371L24.9083 11.8918L22.9852 20.6965C22.9278 20.9504 22.8689 21.1971 22.8084 21.4366C22.7507 21.6718 22.6929 21.8975 22.6348 22.1139C22.5768 22.3303 22.5163 22.5359 22.4536 22.7306C22.6041 22.592 22.7604 22.454 22.9225 22.3165C23.0918 22.1775 23.2712 22.0326 23.4605 21.8816C23.6526 21.7263 23.8597 21.562 24.0818 21.3888L31.2589 15.9547L31.9763 16.4137ZM37.5819 26.7148L41.1159 28.9757L38.2908 33.3915C37.7066 33.2898 37.1226 33.1202 36.5388 32.8827C35.9577 32.6409 35.3733 32.3319 34.7854 31.9557C33.7631 31.3017 33.0245 30.5572 32.5696 29.722C32.1218 28.8852 31.9538 27.9832 32.0656 27.016C32.1774 26.0488 32.5645 25.0475 33.2269 24.0121C33.8445 23.0469 34.5884 22.314 35.4589 21.8136C36.3337 21.316 37.2736 21.0888 38.2785 21.132C39.2835 21.1752 40.2971 21.5238 41.3193 22.1778C41.8458 22.5146 42.3107 22.88 42.714 23.2741C43.1216 23.6709 43.4743 24.1006 43.772 24.5631L43.1148 24.9959C42.8216 24.5362 42.4886 24.1192 42.116 23.7448C41.7478 23.3732 41.3422 23.0456 40.899 22.7622C40.0304 22.2064 39.163 21.9143 38.2971 21.8858C37.4383 21.8558 36.6317 22.0631 35.8772 22.5079C35.13 22.9511 34.4827 23.6005 33.9353 24.456C33.315 25.4256 32.9601 26.3331 32.8705 27.1785C32.781 28.024 32.9409 28.8033 33.3502 29.5165C33.7639 30.2326 34.4117 30.8727 35.2935 31.4369C35.7761 31.7456 36.2308 31.987 36.6574 32.161C37.0883 32.3378 37.4961 32.4688 37.8806 32.554L40.0489 29.1649L37.1862 27.3334L37.5819 26.7148ZM47.4062 39.8447L46.7284 39.4111L49.7598 34.6728L44.1397 31.0772L41.1083 35.8155L40.4305 35.3818L46.5859 25.7605L47.2637 26.1942L44.5355 30.4586L50.1556 34.0542L52.8839 29.7898L53.5617 30.2234L47.4062 39.8447ZM61.3114 41.9426C60.8427 42.6753 60.3247 43.2868 59.7575 43.7772C59.1902 44.2676 58.5864 44.617 57.946 44.8256C57.3055 45.0342 56.6383 45.0865 55.9443 44.9825C55.2547 44.8814 54.5523 44.6021 53.8371 44.1445C53.1176 43.6842 52.5652 43.1608 52.18 42.5742C51.7947 41.9877 51.5626 41.36 51.4835 40.6911C51.4116 40.0206 51.4794 39.3251 51.6869 38.6046C51.8972 37.8797 52.2367 37.1509 52.7054 36.4182C53.3285 35.4442 54.0418 34.6918 54.8452 34.1608C55.653 33.6327 56.5127 33.3666 57.4243 33.3624C58.3402 33.361 59.2743 33.6648 60.2263 34.2739C61.1388 34.8578 61.7833 35.5514 62.1596 36.3548C62.5432 37.1567 62.6601 38.0322 62.5104 38.9813C62.3679 39.9289 61.9682 40.916 61.3114 41.9426ZM53.4119 36.8795C52.8618 37.7394 52.5056 38.5812 52.3435 39.4049C52.1841 40.2242 52.2541 40.9894 52.5536 41.7003C52.8531 42.4113 53.4108 43.0278 54.2269 43.5499C55.0517 44.0776 55.846 44.3292 56.6098 44.3047C57.3737 44.2801 58.0919 44.0224 58.7646 43.5315C59.4373 43.0406 60.0515 42.3608 60.6073 41.4921C61.4858 40.1189 61.8674 38.8605 61.7519 37.717C61.6408 36.5763 61.0018 35.6326 59.8347 34.886C59.0143 34.3611 58.2156 34.1067 57.4386 34.1228C56.666 34.1417 55.9382 34.3902 55.2551 34.8683C54.5765 35.3492 53.9621 36.0196 53.4119 36.8795ZM67.3214 49.0894C66.9537 49.6641 66.5002 50.0541 65.9608 50.2593C65.4242 50.4602 64.8449 50.5007 64.2228 50.3809C63.6036 50.2568 62.9802 49.9941 62.3529 49.5927C61.9624 49.3429 61.6197 49.0958 61.3246 48.8514C61.0312 48.6142 60.7747 48.3821 60.5552 48.155C60.34 47.9308 60.1524 47.7119 59.9923 47.4982L60.426 46.8203C60.684 47.1709 61.0045 47.5398 61.3874 47.927C61.7775 48.3126 62.238 48.6752 62.7689 49.0149C63.2691 49.3348 63.7585 49.5459 64.2372 49.6482C64.7203 49.7532 65.1677 49.7303 65.5796 49.5795C65.9914 49.4287 66.3404 49.1296 66.6267 48.6821C66.8793 48.2872 66.9913 47.9044 66.9627 47.5336C66.9412 47.1613 66.8015 46.7659 66.5437 46.3474C66.2887 45.9246 65.9385 45.4378 65.4933 44.887C65.1854 44.4984 64.9169 44.1257 64.6877 43.7688C64.4656 43.4103 64.3037 43.0594 64.2019 42.716C64.1028 42.3682 64.0817 42.0147 64.1385 41.6553C64.2025 41.2943 64.358 40.9208 64.605 40.5347C64.9446 40.0039 65.3633 39.6442 65.8611 39.4556C66.3661 39.2655 66.9079 39.2257 67.4864 39.3361C68.0722 39.445 68.6546 39.6847 69.2337 40.0552C69.6944 40.3499 70.1029 40.6731 70.4591 41.0247C70.8226 41.3747 71.1426 41.7587 71.4192 42.1768L70.8076 42.611C70.5282 42.1973 70.2207 41.8274 69.8852 41.5014C69.5496 41.1755 69.1932 40.8918 68.8159 40.6504C68.364 40.3613 67.9168 40.1711 67.4744 40.0797C67.0393 39.9868 66.633 40.0082 66.2555 40.1439C65.8781 40.2796 65.5589 40.5514 65.2978 40.9594C65.0284 41.3806 64.9052 41.781 64.9282 42.1605C64.9557 42.5429 65.0901 42.9319 65.3317 43.3275C65.5776 43.726 65.8899 44.1608 66.2686 44.6318C66.7155 45.1898 67.0763 45.7082 67.3512 46.187C67.6289 46.6614 67.7757 47.1325 67.7918 47.6003C67.8122 48.071 67.6554 48.5673 67.3214 49.0894ZM70.3079 54.4966L69.6234 54.0587L75.3873 45.0494L72.268 43.0537L72.6595 42.4417L79.5827 46.8709L79.1911 47.483L76.0718 45.4873L70.3079 54.4966Z" fill="black"/>
</svg>
